<svg xmlns="http://www.w3.org/2000/svg" viewBox="0 0 24 24" fill="none" stroke="__COLOR__" stroke-width="2" stroke-linecap="round" stroke-linejoin="round"><circle cx="12" cy="12" r="3.2"/><path d="M19.4 13.5a1.7 1.7 0 00.34 1.87l.06.06a2 2 0 11-2.83 2.83l-.06-.06a1.7 1.7 0 00-1.87-.34 1.7 1.7 0 00-1.03 1.56V21a2 2 0 11-4 0v-.09a1.7 1.7 0 00-1.11-1.56 1.7 1.7 0 00-1.87.34l-.06.06a2 2 0 11-2.83-2.83l.06-.06a1.7 1.7 0 00.34-1.87 1.7 1.7 0 00-1.56-1.03H3a2 2 0 110-4h.09A1.7 1.7 0 004.65 9a1.7 1.7 0 00-.34-1.87l-.06-.06a2 2 0 112.83-2.83l.06.06a1.7 1.7 0 001.87.34H9.1a1.7 1.7 0 001-1.56V3a2 2 0 114 0v.09a1.7 1.7 0 001.03 1.56 1.7 1.7 0 001.87-.34l.06-.06a2 2 0 112.83 2.83l-.06.06a1.7 1.7 0 00-.34 1.87V9.1a1.7 1.7 0 001.56 1H21a2 2 0 110 4h-.09a1.7 1.7 0 00-1.51 1.03z"/></svg>
